<svg width="186" height="62" viewBox="0 0 186 62" fill="none" xmlns="http://www.w3.org/2000/svg">
<path d="M171.083 0H14.7619C14.1404 0 13.6742 0 13.0526 0C12.5865 0 12.1203 0 11.6541 0C10.5664 0 9.63409 0.155384 8.54637 0.310772C7.45865 0.466161 6.52632 0.776935 5.59399 1.2431C4.66166 1.70927 3.88471 2.33083 3.10777 3.10777C2.33083 3.88471 1.70927 4.66165 1.24311 5.59398C0.776941 6.52631 0.466167 7.45865 0.310778 8.54637C0.15539 9.63409 0 10.5664 0 11.6541C0 12.1203 0 12.5865 0 13.0526V48.9474C0 49.4135 0 49.8797 0 50.3459C0 51.4336 0.15539 52.3659 0.310778 53.4536C0.466167 54.5414 0.776941 55.4737 1.24311 56.406C1.70927 57.3383 2.33083 58.1153 3.10777 58.8922C3.88471 59.6692 4.66166 60.2907 5.59399 60.7569C6.52632 61.2231 7.45865 61.5338 8.54637 61.6892C9.63409 61.8446 10.5664 62 11.6541 62C12.1203 62 12.5865 62 13.0526 62C13.6742 62 14.1404 62 14.7619 62H171.083C171.704 62 172.17 62 172.792 62C173.258 62 173.724 62 174.191 62C175.278 62 176.211 61.8446 177.298 61.6892C178.386 61.5338 179.318 61.2231 180.251 60.7569C181.183 60.2907 181.96 59.6692 182.737 58.8922C183.514 58.1153 184.135 57.3383 184.602 56.406C185.068 55.4737 185.378 54.5414 185.534 53.4536C185.689 52.3659 185.845 51.4336 185.845 50.3459C185.845 49.8797 185.845 49.4135 185.845 48.9474C185.845 48.3258 185.845 47.8596 185.845 47.2381V14.9173C185.845 14.2957 185.845 13.8296 185.845 13.208C185.845 12.7419 185.845 12.2757 185.845 11.8095C185.845 10.7218 185.689 9.78947 185.534 8.70175C185.378 7.61403 185.068 6.6817 184.602 5.74937C183.669 3.88471 182.115 2.33082 180.251 1.39849C179.318 0.932321 178.386 0.621547 177.298 0.466158C176.211 0.31077 175.278 0.155386 174.191 0.155386C173.724 0.155386 173.258 0.155386 172.792 0.155386C172.326 -2.37336e-06 171.704 0 171.083 0Z" fill="#A7A7A7"/>
<path d="M13.0526 60.9123C12.5865 60.9123 12.1203 60.9123 11.6541 60.9123C10.7218 60.9123 9.63409 60.7569 8.70176 60.6015C7.76943 60.4461 6.99249 60.1353 6.06016 59.8246C5.28322 59.3584 4.50627 58.8922 3.88472 58.2707C3.26316 57.6491 2.64161 56.8722 2.33083 56.0952C1.86467 55.3183 1.70928 54.386 1.55389 53.4536C1.3985 52.5213 1.24311 51.589 1.24311 50.5013C1.24311 50.1905 1.24311 49.1028 1.24311 49.1028V13.208C1.24311 13.208 1.24311 12.1203 1.24311 11.8095C1.24311 10.8772 1.3985 9.78947 1.55389 8.85714C1.70928 7.9248 2.02005 7.14787 2.33083 6.21554C2.797 5.43859 3.26316 4.66165 3.88472 4.04009C4.50627 3.41854 5.28322 2.79699 6.06016 2.48621C6.8371 2.02004 7.76943 1.86466 8.70176 1.70927C9.63409 1.55388 10.5664 1.39848 11.6541 1.39848H13.0526H172.792H174.191C175.123 1.39848 176.055 1.55388 177.143 1.70927C178.075 1.86466 178.852 2.17543 179.785 2.48621C181.338 3.26315 182.737 4.66165 183.514 6.21554C183.98 6.99248 184.135 7.92481 184.291 8.70175C184.446 9.63408 184.602 10.7218 184.602 11.6541C184.602 12.1203 184.602 12.5865 184.602 13.0526C184.602 13.6742 184.602 14.1403 184.602 14.7619V47.2381C184.602 47.8596 184.602 48.3258 184.602 48.9474C184.602 49.4135 184.602 49.8797 184.602 50.3459C184.602 51.2782 184.446 52.2105 184.291 53.2982C184.135 54.2306 183.825 55.0075 183.514 55.9399C183.048 56.7168 182.581 57.4937 181.96 58.1153C181.338 58.7368 180.561 59.3584 179.785 59.6692C179.008 60.1353 178.075 60.4461 177.143 60.4461C176.211 60.6015 175.278 60.7569 174.191 60.7569C173.724 60.7569 173.258 60.7569 172.792 60.7569H171.083L13.0526 60.9123Z" fill="black"/>
<path d="M38.5364 31.544C38.5364 28.9024 39.9349 26.4162 42.2657 25.0177C40.8672 22.9977 38.5364 21.7546 36.0501 21.5992C33.4085 21.2884 30.9223 23.1531 29.5238 23.1531C28.1253 23.1531 26.1053 21.5992 23.9298 21.5992C20.9775 21.7546 18.3359 23.3085 16.9374 25.7947C13.985 30.9225 16.1604 38.6919 19.1128 42.8874C20.5113 44.9075 22.2206 47.2383 24.396 47.2383C26.5714 47.0829 27.3484 45.8398 29.99 45.8398C32.6316 45.8398 33.2531 47.2383 35.584 47.2383C37.9148 47.2383 39.3133 45.2182 40.7118 43.0428C41.7995 41.6443 42.5765 39.935 43.0426 38.2258C40.2456 37.2933 38.5364 34.4964 38.5364 31.544Z" fill="white"/>
<path d="M34.1855 18.9576C35.4286 17.4037 36.0501 15.539 35.8947 13.519C34.0301 13.6744 32.1654 14.6067 30.9223 16.1606C29.6792 17.5591 29.0576 19.4237 29.213 21.4438C31.2331 21.4436 33.0977 20.5114 34.1855 18.9576Z" fill="white"/>
<path d="M65.7293 42.2658H58.4261L56.7168 47.549H53.609L60.6015 28.2809H63.8647L70.8572 47.549H67.7494L65.7293 42.2658ZM59.203 39.7795H65.1078L62.3108 31.3885H62.1554L59.203 39.7795Z" fill="white"/>
<path d="M85.7745 40.401C85.7745 44.7519 83.4436 47.5489 79.8697 47.5489C78.005 47.7043 76.2958 46.6165 75.5188 45.0627V52.0551H72.5664V33.4085H75.3634V35.7394C76.2958 34.1855 78.005 33.2531 79.8697 33.2531C83.2882 33.2533 85.7745 36.0503 85.7745 40.401ZM82.8221 40.401C82.8221 37.604 81.4236 35.7394 79.0927 35.7394C76.9173 35.7394 75.3634 37.604 75.3634 40.401C75.3634 43.198 76.9173 45.0627 79.0927 45.0627C81.2682 45.0627 82.8221 43.198 82.8221 40.401Z" fill="white"/>
<path d="M101.158 40.401C101.158 44.7519 98.8272 47.5489 95.2533 47.5489C93.3886 47.7043 91.6794 46.6165 90.9024 45.0627V52.0551H87.95V33.4085H90.747V35.7394C91.6794 34.1855 93.3886 33.2531 95.2533 33.2531C98.8271 33.2533 101.158 36.0503 101.158 40.401ZM98.2055 40.401C98.2055 37.604 96.807 35.7394 94.4762 35.7394C92.3008 35.7394 90.7469 37.604 90.7469 40.401C90.7469 43.198 92.3008 45.0627 94.4762 45.0627C96.807 45.0627 98.2055 43.198 98.2055 40.401Z" fill="white"/>
<path d="M111.414 42.1103C111.569 43.9749 113.434 45.218 116.075 45.218C118.562 45.218 120.271 43.9749 120.271 42.2657C120.271 40.7118 119.183 39.9348 116.697 39.3133L114.211 38.6917C110.637 37.7594 109.083 36.2055 109.083 33.5639C109.083 30.3008 112.035 27.9699 116.075 27.9699C120.115 27.9699 122.912 30.3008 123.068 33.5639H120.115C119.96 31.6992 118.406 30.4561 116.075 30.4561C113.745 30.4561 112.191 31.6992 112.191 33.4085C112.191 34.807 113.278 35.584 115.765 36.2055L117.94 36.6717C121.825 37.604 123.534 39.1579 123.534 41.9549C123.534 45.5288 120.582 47.8596 116.075 47.8596C111.724 47.8596 108.927 45.6842 108.772 42.1103H111.414Z" fill="white"/>
<path d="M129.439 29.9901V33.2533H132.08V35.5841H129.439V43.3535C129.439 44.5966 129.905 45.0628 131.148 45.0628C131.459 45.0628 131.77 45.0628 132.08 45.0628V47.3936C131.614 47.549 130.993 47.549 130.526 47.549C127.729 47.549 126.642 46.4613 126.642 43.8197V35.7395H124.622V33.4087H126.642V30.1455L129.439 29.9901Z" fill="white"/>
<path d="M133.79 40.401C133.79 36.0501 136.431 33.2531 140.471 33.2531C144.511 33.2531 147.153 36.0501 147.153 40.401C147.153 44.9073 144.511 47.5489 140.471 47.5489C136.276 47.5489 133.79 44.9074 133.79 40.401ZM144.201 40.401C144.201 37.2932 142.802 35.584 140.471 35.584C138.141 35.584 136.742 37.4486 136.742 40.401C136.742 43.5088 138.141 45.218 140.471 45.218C142.802 45.218 144.201 43.5088 144.201 40.401Z" fill="white"/>
<path d="M149.484 33.4085H152.281V35.7394C152.592 34.1855 154.146 33.0977 155.699 33.2531C156.01 33.2531 156.321 33.2531 156.632 33.4085V36.0501C156.166 35.8947 155.699 35.8947 155.389 35.8947C153.835 35.8947 152.436 37.1378 152.436 38.6917C152.436 38.8471 152.436 39.0025 152.436 39.1579V47.5489H149.484V33.4085Z" fill="white"/>
<path d="M169.995 43.3535C169.684 45.8397 167.043 47.7044 163.935 47.7044C159.895 47.7044 157.253 44.9074 157.253 40.5565C157.253 36.2057 159.74 33.2533 163.78 33.2533C167.664 33.2533 170.151 35.8949 170.151 40.2457V41.1781H160.206V41.3335C160.05 43.3535 161.449 45.0628 163.469 45.3736C163.624 45.3736 163.78 45.3736 163.935 45.3736C165.334 45.529 166.732 44.752 167.198 43.3535H169.995V43.3535ZM160.206 39.158H167.198C167.354 37.2934 165.8 35.7395 163.935 35.5841C163.78 35.5841 163.78 35.5841 163.624 35.5841C161.76 35.5841 160.206 37.138 160.206 39.158C160.206 39.158 160.206 39.0025 160.206 39.158Z" fill="white"/>
<path d="M58.7369 13.6742C61.0677 13.5188 62.9323 15.2281 63.0877 17.4035C63.0877 17.7143 63.0877 17.8697 63.0877 18.1805C63.0877 21.1328 61.5338 22.8421 58.7369 22.8421H55.3183V13.5188L58.7369 13.6742ZM56.8722 21.5992H58.5815C60.1354 21.7545 61.5339 20.5114 61.6892 18.8022C61.6892 18.6468 61.6892 18.336 61.6892 18.1806C61.8446 16.6267 60.7569 15.0728 59.203 14.9175C59.0476 14.9175 58.8922 14.9175 58.5815 14.9175H56.8722V21.5992Z" fill="white"/>
<path d="M64.797 19.4236C64.6416 17.5589 65.8847 16.005 67.7494 15.8496C69.614 15.6942 71.1679 16.9373 71.3233 18.802C71.3233 18.9574 71.3233 19.2682 71.3233 19.4236C71.4787 21.2882 70.2356 22.8421 68.3709 22.9975C66.5063 23.1529 64.9524 21.9098 64.797 20.0451C64.797 19.7345 64.797 19.5789 64.797 19.4236ZM69.9248 19.4236C69.9248 17.8697 69.3033 17.0927 68.0602 17.0927C66.8171 17.0927 66.1955 18.0251 66.1955 19.4236C66.1955 20.9774 66.8171 21.9098 68.0602 21.9098C69.3033 21.7544 69.9248 20.8222 69.9248 19.4236Z" fill="white"/>
<path d="M80.1805 22.8423H78.782L77.2281 17.7144H77.0727L75.6742 22.8423H74.2757L72.411 15.8498H73.8095L75.0526 21.133L76.4511 15.8498H77.8496L79.2481 21.133H79.4035L80.6466 15.8498H82.0451L80.1805 22.8423Z" fill="white"/>
<path d="M83.7544 15.8498H85.1529V16.9375H85.3083C85.6191 16.1605 86.5514 15.6944 87.3283 15.6944C88.5714 15.539 89.6592 16.4713 89.8146 17.8698C89.8146 18.0252 89.8146 18.1806 89.8146 18.336V22.8423H88.4161V18.6468C88.4161 17.5591 87.9499 16.9375 86.8622 16.9375C85.9298 16.9375 85.1529 17.559 85.1529 18.4914C85.1529 18.6468 85.1529 18.6468 85.1529 18.8022V22.8423H83.7544V15.8498V15.8498Z" fill="white"/>
<path d="M91.8346 13.208H93.2331V22.9975H91.8346V13.208Z" fill="white"/>
<path d="M95.0978 19.4236C94.9424 17.5589 96.1855 16.005 98.0501 15.8496C99.9148 15.6942 101.469 16.9373 101.624 18.802C101.624 18.9574 101.624 19.2682 101.624 19.4236C101.779 21.2882 100.536 22.8421 98.6717 22.9975C96.807 23.1529 95.2532 21.9098 95.0978 20.0451C95.0978 19.7345 95.0978 19.5789 95.0978 19.4236ZM100.381 19.4236C100.381 17.8697 99.7596 17.0927 98.5165 17.0927C97.2734 17.0927 96.6518 18.0251 96.6518 19.4236C96.6518 20.9774 97.2734 21.9098 98.5165 21.9098C99.6042 21.7544 100.381 20.8222 100.381 19.4236Z" fill="white"/>
<path d="M103.178 20.8222C103.178 19.5791 104.11 18.8022 105.82 18.8022L107.684 18.6468V18.0252C107.684 17.2483 107.218 16.9375 106.286 16.9375C105.509 16.9375 105.043 17.2483 104.887 17.7144H103.489C103.644 16.4713 104.732 15.6944 106.286 15.6944C107.995 15.6944 109.083 16.6267 109.083 18.0252V22.8423H107.684V21.9099C107.218 22.6869 106.441 22.9977 105.509 22.9977C104.421 23.153 103.334 22.2207 103.178 21.133C103.178 20.9775 103.178 20.9774 103.178 20.8222ZM107.684 20.3559V19.7343L105.975 19.8897C105.043 19.8897 104.577 20.3559 104.577 20.8221C104.577 21.4436 105.198 21.7544 105.82 21.7544C106.752 21.9098 107.529 21.2884 107.684 20.3559Z" fill="white"/>
<path d="M110.948 19.4236C110.948 17.2481 112.035 15.8496 113.9 15.8496C114.832 15.8496 115.609 16.3158 116.075 17.0927H116.231V13.208H117.629V22.9975H116.231V21.9098H116.075C115.609 22.6867 114.832 23.1529 113.9 23.1529C112.035 22.9975 110.948 21.5992 110.948 19.4236ZM112.346 19.4236C112.346 20.9774 113.123 21.7544 114.211 21.7544C115.298 21.7544 116.075 20.8221 116.075 19.4236C116.075 18.0251 115.298 17.0927 114.211 17.0927C112.968 16.9375 112.346 17.8697 112.346 19.4236Z" fill="white"/>
<path d="M123.068 19.4236C122.912 17.5589 124.156 16.005 126.02 15.8496C127.885 15.6942 129.439 16.9373 129.594 18.802C129.594 18.9574 129.594 19.2682 129.594 19.4236C129.75 21.2882 128.506 22.8421 126.642 22.9975C124.777 23.1529 123.223 21.9098 123.068 20.0451C123.068 19.7345 123.068 19.5789 123.068 19.4236ZM128.351 19.4236C128.351 17.8697 127.729 17.0927 126.486 17.0927C125.243 17.0927 124.622 18.0251 124.622 19.4236C124.622 20.9774 125.243 21.9098 126.486 21.9098C127.574 21.7544 128.351 20.8222 128.351 19.4236Z" fill="white"/>
<path d="M131.614 15.8498H133.013V16.9375H133.168C133.479 16.1605 134.411 15.6944 135.188 15.6944C136.431 15.539 137.519 16.4713 137.674 17.8698C137.674 18.0252 137.674 18.1806 137.674 18.336V22.8423H136.276V18.6468C136.276 17.5591 135.81 16.9375 134.722 16.9375C133.79 16.9375 133.013 17.559 133.013 18.4914C133.013 18.6468 133.013 18.6468 133.013 18.8022V22.8423H131.614V15.8498V15.8498Z" fill="white"/>
<path d="M145.288 14.1404V15.8496H146.842V16.9374H145.288V20.5113C145.288 21.2882 145.599 21.599 146.221 21.599C146.376 21.599 146.532 21.599 146.687 21.599V22.6867C146.376 22.6867 146.221 22.6867 145.91 22.6867C144.356 22.6867 143.735 22.2206 143.735 20.8221V16.9374H142.647V15.8496H143.735V14.1404H145.288Z" fill="white"/>
<path d="M148.707 13.208H150.105V17.0927H150.261C150.572 16.3158 151.504 15.6942 152.436 15.8496C153.679 15.8496 154.767 16.782 154.922 18.0251C154.922 18.1805 154.922 18.3358 154.922 18.4912V22.9975H153.524V18.802C153.524 17.7143 153.058 17.0927 151.97 17.0927C151.038 17.0927 150.261 17.7143 150.261 18.6466C150.261 18.802 150.261 18.802 150.261 18.9574V22.9975H148.862L148.707 13.208Z" fill="white"/>
<path d="M162.847 20.9774C162.537 22.2206 161.138 23.1529 159.74 22.9975C158.03 22.9975 156.476 21.599 156.476 19.8897C156.476 19.7343 156.476 19.579 156.476 19.4236C156.166 17.7143 157.409 16.005 159.273 15.8496C159.429 15.8496 159.584 15.8496 159.74 15.8496C161.76 15.8496 162.847 17.2481 162.847 19.4236V19.8897H157.875C157.719 20.9774 158.496 21.7544 159.584 21.9098H159.74C160.361 22.0652 161.138 21.599 161.449 21.1328L162.847 20.9774ZM157.875 18.802H161.449C161.449 17.8697 160.827 17.0927 159.895 16.9373H159.74C158.807 16.9375 157.875 17.7144 157.875 18.802C157.875 18.6466 157.875 18.6466 157.875 18.802Z" fill="white"/>
</svg>
