<svg width="209" height="63" viewBox="0 0 209 63" fill="none" xmlns="http://www.w3.org/2000/svg">
<path d="M201.275 62.221H8.14457C3.81845 62.221 0.419357 58.8219 0.419357 54.4958V8.14455C0.419357 3.81843 3.81845 0.419353 8.14457 0.419353H201.275C205.601 0.419353 209 3.81843 209 8.14455V54.4958C209 58.8219 205.601 62.221 201.275 62.221Z" fill="black"/>
<path d="M201.275 1.65538C204.828 1.65538 207.764 4.59095 207.764 8.14455V54.4958C207.764 58.0494 204.828 60.985 201.275 60.985H8.14457C4.59097 60.985 1.65539 58.0494 1.65539 54.4958V8.14455C1.65539 4.59095 4.59097 1.65538 8.14457 1.65538H201.275ZM201.275 0.419353H8.14457C3.81845 0.419353 0.419357 3.81843 0.419357 8.14455V54.4958C0.419357 58.8219 3.81845 62.221 8.14457 62.221H201.275C205.601 62.221 209 58.8219 209 54.4958V8.14455C209 3.97294 205.601 0.419353 201.275 0.419353Z" fill="#A7A7A7"/>
<path d="M73.6543 16.3333C73.6543 17.5693 73.3453 18.6508 72.5728 19.4234C71.6458 20.3504 70.5642 20.8139 69.1737 20.8139C67.7832 20.8139 66.7016 20.3504 65.7746 19.4234C64.8476 18.4963 64.3841 17.4148 64.3841 16.0243C64.3841 14.6337 64.8476 13.5522 65.7746 12.6252C66.7016 11.6982 67.7832 11.2346 69.1737 11.2346C69.7917 11.2346 70.4097 11.3891 71.0278 11.6982C71.6458 12.0072 72.1093 12.3162 72.4183 12.7797L71.6458 13.5522C71.0278 12.7797 70.2552 12.4707 69.1737 12.4707C68.2467 12.4707 67.3197 12.7797 66.7016 13.5522C65.9291 14.1702 65.6201 15.0973 65.6201 16.1788C65.6201 17.2603 65.9291 18.1873 66.7016 18.8054C67.4742 19.4234 68.2467 19.8869 69.1737 19.8869C70.2552 19.8869 71.0278 19.5779 71.8003 18.8054C72.2638 18.3418 72.5728 17.7238 72.5728 16.9513H69.1737V15.8698H73.6543C73.6543 15.8698 73.6543 16.0243 73.6543 16.3333Z" fill="white" stroke="white" stroke-width="0.2" stroke-miterlimit="10"/>
<path d="M80.7615 12.4707H76.5899V15.4063H80.4525V16.4878H76.5899V19.4234H80.7615V20.5049H75.3539V11.2346H80.7615V12.4707Z" fill="white" stroke="white" stroke-width="0.2" stroke-miterlimit="10"/>
<path d="M85.8601 20.5049H84.6241V12.3162H81.9975V11.2346H88.4867V12.3162H85.8601V20.5049Z" fill="white" stroke="white" stroke-width="0.2" stroke-miterlimit="10"/>
<path d="M92.9673 20.5049V11.2346H94.2034V20.5049H92.9673Z" fill="white" stroke="white" stroke-width="0.2" stroke-miterlimit="10"/>
<path d="M99.4565 20.5049H98.2205V12.3162H95.5939V11.2346H101.929V12.3162H99.302L99.4565 20.5049Z" fill="white" stroke="white" stroke-width="0.2" stroke-miterlimit="10"/>
<path d="M114.134 19.4234C113.207 20.3504 112.126 20.8139 110.735 20.8139C109.345 20.8139 108.263 20.3504 107.336 19.4234C106.409 18.4963 105.946 17.4148 105.946 16.0243C105.946 14.6337 106.409 13.5522 107.336 12.6252C108.263 11.6982 109.345 11.2346 110.735 11.2346C112.126 11.2346 113.207 11.6982 114.134 12.6252C115.061 13.5522 115.525 14.6337 115.525 16.0243C115.525 17.2603 115.061 18.3418 114.134 19.4234ZM108.263 18.4963C108.881 19.1144 109.808 19.5779 110.735 19.5779C111.662 19.5779 112.589 19.2689 113.207 18.4963C113.825 17.8783 114.289 16.9513 114.289 15.8698C114.289 14.7882 113.98 13.8612 113.207 13.2432C112.589 12.6252 111.662 12.1617 110.735 12.1617C109.808 12.1617 108.881 12.4707 108.263 13.2432C107.645 13.8612 107.182 14.7882 107.182 15.8698C107.182 16.9513 107.491 17.8783 108.263 18.4963Z" fill="white" stroke="white" stroke-width="0.2" stroke-miterlimit="10"/>
<path d="M117.225 20.5049V11.2346H118.615L123.096 18.4963V16.6423V11.2346H124.332V20.5049H123.096L118.306 12.9342V14.7882V20.5049H117.225Z" fill="white" stroke="white" stroke-width="0.2" stroke-miterlimit="10"/>
<path d="M105.637 34.1013C101.929 34.1013 98.993 36.8823 98.993 40.7449C98.993 44.453 101.929 47.3886 105.637 47.3886C109.345 47.3886 112.28 44.6075 112.28 40.7449C112.28 36.8823 109.345 34.1013 105.637 34.1013ZM105.637 44.6075C103.628 44.6075 101.929 42.908 101.929 40.5904C101.929 38.2729 103.628 36.5733 105.637 36.5733C107.645 36.5733 109.345 38.1184 109.345 40.5904C109.345 42.908 107.645 44.6075 105.637 44.6075ZM91.2678 34.1013C87.5597 34.1013 84.6241 36.8823 84.6241 40.7449C84.6241 44.453 87.5597 47.3886 91.2678 47.3886C94.9759 47.3886 97.9115 44.6075 97.9115 40.7449C97.9115 36.8823 94.9759 34.1013 91.2678 34.1013ZM91.2678 44.6075C89.2593 44.6075 87.5597 42.908 87.5597 40.5904C87.5597 38.2729 89.2593 36.5733 91.2678 36.5733C93.2764 36.5733 94.9759 38.1184 94.9759 40.5904C94.9759 42.908 93.2764 44.6075 91.2678 44.6075ZM74.2724 36.1098V38.8909H80.916C80.7615 40.4359 80.1435 41.672 79.371 42.4445C78.444 43.3715 76.8989 44.453 74.2724 44.453C70.1007 44.453 67.0106 41.2085 67.0106 37.0369C67.0106 32.8652 70.2552 29.6206 74.2724 29.6206C76.4354 29.6206 78.135 30.5477 79.371 31.6292L81.3795 29.6206C79.68 28.0756 77.5169 26.8396 74.4269 26.8396C68.8647 26.8396 64.0751 31.4747 64.0751 37.0369C64.0751 42.599 68.8647 47.2341 74.4269 47.2341C77.5169 47.2341 79.68 46.3071 81.534 44.2985C83.3881 42.4445 84.0061 39.8179 84.0061 37.8094C84.0061 37.1914 84.0061 36.5733 83.8516 36.1098H74.2724ZM144.263 38.2729C143.645 36.7278 142.1 34.1013 138.701 34.1013C135.302 34.1013 132.52 36.7278 132.52 40.7449C132.52 44.453 135.301 47.3886 139.01 47.3886C141.945 47.3886 143.799 45.5346 144.417 44.453L142.254 42.908C141.482 43.9895 140.555 44.7621 139.01 44.7621C137.465 44.7621 136.538 44.144 135.765 42.7535L144.572 39.0454L144.263 38.2729ZM135.302 40.4359C135.302 37.9639 137.31 36.5733 138.701 36.5733C139.782 36.5733 140.864 37.1913 141.173 37.9639L135.302 40.4359ZM128.04 46.7706H130.975V27.4576H128.04V46.7706ZM123.405 35.4918C122.632 34.7193 121.396 33.9468 119.851 33.9468C116.607 33.9468 113.516 36.8823 113.516 40.5904C113.516 44.2985 116.452 47.0796 119.851 47.0796C121.396 47.0796 122.632 46.3071 123.25 45.5346H123.405V46.4616C123.405 48.9337 122.014 50.3242 119.851 50.3242C118.152 50.3242 116.916 49.0882 116.606 48.0066L114.134 49.0882C114.907 50.7877 116.761 52.9508 120.006 52.9508C123.405 52.9508 126.186 50.9422 126.186 46.1526V34.4103H123.405V35.4918ZM120.006 44.6075C117.997 44.6075 116.297 42.908 116.297 40.5904C116.297 38.2729 117.997 36.5733 120.006 36.5733C122.014 36.5733 123.559 38.2729 123.559 40.5904C123.559 42.908 122.014 44.6075 120.006 44.6075ZM157.705 27.4576H150.752V46.7706H153.688V39.5089H157.705C160.949 39.5089 164.039 37.1914 164.039 33.4833C164.039 29.7752 160.949 27.4576 157.705 27.4576ZM157.859 36.8823H153.688V30.2387H157.859C160.022 30.2387 161.258 32.0927 161.258 33.4833C161.258 35.0283 160.022 36.8823 157.859 36.8823ZM175.627 34.1013C173.464 34.1013 171.301 35.0283 170.528 37.0369L173.155 38.1184C173.773 37.0368 174.7 36.7278 175.782 36.7278C177.327 36.7278 178.717 37.6549 178.872 39.1999V39.3544C178.408 39.0454 177.172 38.5819 175.936 38.5819C173.155 38.5819 170.374 40.1269 170.374 42.908C170.374 45.5346 172.692 47.2341 175.164 47.2341C177.172 47.2341 178.099 46.3071 178.872 45.3801H179.026V46.9251H181.807V39.5089C181.498 35.9553 178.872 34.1013 175.627 34.1013ZM175.318 44.6075C174.391 44.6075 173.001 44.144 173.001 42.908C173.001 41.363 174.7 40.8995 176.091 40.8995C177.327 40.8995 177.945 41.2085 178.717 41.5175C178.408 43.3715 176.863 44.6075 175.318 44.6075ZM191.696 34.4103L188.451 42.7535H188.296L184.897 34.4103H181.807L186.906 46.1526L183.97 52.6418H186.906L194.786 34.4103H191.696ZM165.584 46.7706H168.52V27.4576H165.584V46.7706Z" fill="white"/>
<path d="M16.4878 12.1617C16.0243 12.6252 15.7153 13.3977 15.7153 14.3247V48.4702C15.7153 49.3972 16.0243 50.1697 16.4878 50.6332L16.6423 50.7877L35.8008 31.6292V31.4747V31.3202L16.4878 12.1617Z" fill="url(#paint0_linear)"/>
<path d="M42.1355 37.9639L35.8008 31.6292V31.4747V31.3202L42.1355 24.9855L42.29 25.14L49.8607 29.4661C52.0237 30.7022 52.0237 32.7107 49.8607 33.9468L42.1355 37.9639Z" fill="url(#paint1_linear)"/>
<path d="M42.29 37.9639L35.8008 31.4747L16.4878 50.7877C17.2603 51.5602 18.3418 51.5602 19.7324 50.9422L42.29 37.9639Z" fill="url(#paint2_linear)"/>
<path d="M42.29 24.831L19.7324 12.0072C18.3418 11.2346 17.2603 11.3892 16.4878 12.1617L35.8008 31.4747L42.29 24.831Z" fill="url(#paint3_linear)"/>
<path opacity="0.2" d="M42.1355 37.8094L19.7324 50.4787C18.4963 51.2512 17.4148 51.0967 16.6423 50.4787L16.4878 50.6332L16.6423 50.7877C17.4148 51.4057 18.4963 51.5602 19.7324 50.7877L42.1355 37.8094Z" fill="black"/>
<path opacity="0.12" d="M16.4878 50.3242C16.0243 49.8607 15.7153 49.0882 15.7153 48.1611V48.3156C15.7153 49.2427 16.0243 50.0152 16.4878 50.4787V50.3242Z" fill="black"/>
<path opacity="0.12" d="M49.8607 33.3287L42.1355 37.6549L42.29 37.8094L49.8607 33.4833C50.9422 32.8652 51.4057 32.0927 51.4057 31.3202C51.4057 32.0927 50.9422 32.8652 49.8607 33.3287Z" fill="black"/>
<path opacity="0.25" d="M19.7324 12.3162L49.8607 29.3116C50.7877 29.9297 51.4057 30.5477 51.4057 31.3202C51.4057 30.5477 50.9422 29.7752 49.8607 29.1571L19.7324 12.0072C17.5693 10.7711 15.8698 11.8527 15.8698 14.3247V14.4792C15.8698 12.0072 17.5693 11.0802 19.7324 12.3162Z" fill="white"/>
<defs>
<linearGradient id="paint0_linear" x1="34.12" y1="13.9198" x2="8.19044" y2="39.8493" gradientUnits="userSpaceOnUse">
<stop stop-color="#00A0FF"/>
<stop offset="0.00657445" stop-color="#00A2FF"/>
<stop offset="0.2601" stop-color="#00BEFF"/>
<stop offset="0.5122" stop-color="#00D2FF"/>
<stop offset="0.7604" stop-color="#00DFFF"/>
<stop offset="1" stop-color="#00E3FF"/>
</linearGradient>
<linearGradient id="paint1_linear" x1="52.7127" y1="31.4747" x2="15.3275" y2="31.4747" gradientUnits="userSpaceOnUse">
<stop stop-color="#FFE000"/>
<stop offset="0.4087" stop-color="#FFBD00"/>
<stop offset="0.7754" stop-color="#FFA600"/>
<stop offset="1" stop-color="#FF9C00"/>
</linearGradient>
<linearGradient id="paint2_linear" x1="38.8254" y1="34.9393" x2="3.66284" y2="70.1018" gradientUnits="userSpaceOnUse">
<stop stop-color="#FF3743"/>
<stop offset="1" stop-color="#E30864"/>
</linearGradient>
<linearGradient id="paint3_linear" x1="11.6689" y1="0.776414" x2="27.3706" y2="16.4781" gradientUnits="userSpaceOnUse">
<stop stop-color="#00A06F"/>
<stop offset="0.0685" stop-color="#00A86E"/>
<stop offset="0.4762" stop-color="#00CF6E"/>
<stop offset="0.8009" stop-color="#00E76D"/>
<stop offset="1" stop-color="#00EF6D"/>
</linearGradient>
</defs>
</svg>
