<svg width="283" height="515" viewBox="0 0 283 515" fill="none" xmlns="http://www.w3.org/2000/svg">
<path d="M231.3 422.4L136.7 514.3L0.700012 461.3L190 416.4L231.3 422.4Z" fill="url(#paint0_linear)"/>
<path d="M174.265 395.464C174.675 393.802 174.008 392.207 172.775 391.903C171.542 391.599 170.209 392.699 169.799 394.362C169.389 396.024 170.056 397.618 171.289 397.923C172.523 398.227 173.855 397.126 174.265 395.464Z" fill="#100144"/>
<path d="M242.6 118.6L245.6 169.1C245.6 169.1 251.1 211.1 250.2 215.5C249.3 219.9 244.1 210.3 243.7 205.5C243.3 201.3 229.1 135 237.2 120.2C238.4 118 240.4 118.3 242.6 118.6Z" fill="#B2C9EA"/>
<path d="M181.4 78.4C181.4 78.4 188.4 66.8 186.9 56.2C185.4 45.5 192.7 35 194.5 33.8C196.3 32.6 206.5 24.9 207.1 24.9C207.7 24.9 229.3 28.2 229.3 28.2C229.3 28.2 226.8 37.7 222.9 54.3C221.2 61.5 217.1 67.6 214.7 71.1C211.3 76.2 210.4 80.3 210.4 80.3L215.6 81.6L224 99.9L201.3 103.2L182.7 94.4L180.8 82.4L181.4 78.4Z" fill="url(#paint1_linear)"/>
<path d="M260.5 123.9L247.1 123.4C246.6 123.4 246.1 123.1 245.9 122.6C245.6 122.1 245.7 121.6 245.9 121.1L260.3 97.1C260.6 96.6 261.1 96.3 261.7 96.4L274.5 97.7C275 97.8 275.4 98.1 275.7 98.5C275.9 99 275.9 99.5 275.6 99.9L261.7 123C261.5 123.6 261 123.9 260.5 123.9ZM246.4 121.4C246.2 121.7 246.2 122.1 246.4 122.4C246.6 122.7 246.9 122.9 247.2 122.9L260.5 123.4C260.9 123.4 261.2 123.2 261.4 122.9L275.3 99.8C275.5 99.5 275.5 99.2 275.3 98.9C275.2 98.6 274.9 98.4 274.5 98.4L261.7 97.1C261.3 97.1 261 97.2 260.8 97.6L246.4 121.4Z" fill="url(#paint2_linear)"/>
<path d="M269.4 100.7L262 99.8999C261.8 99.8999 261.7 99.6999 261.7 99.4999C261.7 99.2999 261.9 99.2 262.1 99.2L269.4 99.9999C269.6 99.9999 269.7 100.2 269.7 100.4C269.8 100.6 269.6 100.7 269.4 100.7Z" fill="url(#paint3_linear)"/>
<path d="M271.6 103.2L260.5 102.2C260.3 102.2 260.1 102 260.2 101.8C260.3 101.6 260.4 101.5 260.6 101.5L271.7 102.5C271.9 102.5 272.1 102.7 272 102.9C272 103.1 271.8 103.2 271.6 103.2Z" fill="url(#paint4_linear)"/>
<path d="M268.6 107.8L257.5 106.8C257.3 106.8 257.1 106.6 257.2 106.4C257.2 106.2 257.4 106 257.6 106.1L268.7 107.1C268.9 107.1 269.1 107.3 269 107.5C268.9 107.6 268.8 107.8 268.6 107.8Z" fill="url(#paint5_linear)"/>
<path d="M267.1 105.3L259 104.6C258.8 104.6 258.6 104.4 258.7 104.2C258.7 104 258.9 103.8 259.1 103.9L267.2 104.6C267.4 104.6 267.6 104.8 267.5 105C267.5 105.2 267.3 105.3 267.1 105.3Z" fill="url(#paint6_linear)"/>
<path d="M262.6 109.8L256.3 109.3C256.1 109.3 255.9 109.1 256 108.9C256 108.7 256.2 108.5 256.4 108.6L262.7 109.1C262.9 109.1 263.1 109.3 263 109.5C263 109.6 262.8 109.8 262.6 109.8Z" fill="url(#paint7_linear)"/>
<path d="M260 111.5C260 111.5 259.9 111.5 260 111.5L255 111.1C254.8 111.1 254.6 110.9 254.7 110.7C254.7 110.5 254.9 110.3 255.1 110.4L260.1 110.8C260.3 110.8 260.5 111 260.4 111.2C260.3 111.3 260.2 111.5 260 111.5Z" fill="url(#paint8_linear)"/>
<path d="M252.6 128.1C252.1 127.5 252.6 127.1 253 126.5L263.4 108.1C263.4 108.1 264.1 107 265.2 107C266.2 107.1 278 108.1 280.1 108.3C280.3 108.3 280.6 108.4 280.8 108.5C281.3 108.8 282.2 110 282 110.9C281.8 112 277.4 111.7 276.2 111.8C276 111.8 275.8 111.9 275.6 111.9L262.9 117.6C262.8 117.6 262.7 117.7 262.6 117.8L255.2 128.3C255.1 128.4 259.2 120.3 259.1 120.3L254.7 128.6C254 128.9 253.6 129.1 253.2 128.5L252.6 128.1Z" fill="#5C3ACB"/>
<path d="M265.6 108.7L281 109.8C281.7 109.9 282.1 110.6 281.7 111.3L266.4 138.3C266.2 138.6 265.8 138.8 265.4 138.8L250.8 137C250.1 136.9 249.8 136.2 250.1 135.6L264.7 109.4C264.9 108.8 265.3 108.6 265.6 108.7Z" fill="#2E1D66"/>
<path d="M243.6 205.4L250.1 215.4C250.1 215.4 245.4 227 250.1 249.5C254.8 272 264 297.3 257.9 307.7C251.8 318.1 172.8 384.1 172.8 384.1C172.8 384.1 157.8 386.3 156.2 370.4C162.9 360.1 215.6 307.7 223.5 297.6C226.8 293.3 211.2 221.5 211.2 221.5L243.6 205.4Z" fill="url(#paint9_linear)"/>
<path d="M231.4 213.2C231.4 213.2 231.1 223.9 223 234.7C223 234.7 208.7 300 208.4 337.2C208.1 374.3 208.4 406.6 208.4 406.6C208.4 406.6 190.5 412.4 187.1 406C183.7 399.6 177.6 332.3 181.9 316.5C184.9 305.2 172.7 220.7 173.2 217.2C174.3 209.9 231.4 213.2 231.4 213.2Z" fill="url(#paint10_linear)"/>
<path d="M181.4 78.4C181.4 78.4 183.5 87.8 194.9 90.8C206.3 93.8 210.9 92.5 213 90.2C216.5 86.3 216.2 82.5 215.3 81.5C214.4 80.4 239.2 89 240.7 100.2C242.2 111.5 242.6 118.6 242.6 118.6C242.6 118.6 238.2 118.9 237.6 120.1C235.4 125 243.6 205.4 243.6 205.4C243.6 205.4 213.5 231.6 173.1 217.3C169.9 189.1 172.5 163.9 167.3 153.4C162.2 142.8 136.6 96.1 181.4 78.4Z" fill="url(#paint11_linear)"/>
<path d="M167.1 134C167.1 134 184.6 131.6 190.5 124C198.4 134.1 201.5 150 207.4 149.8C213.3 149.6 244.4 142 246.7 140.4C249 138.8 245.8 129.4 249.7 126.7C253.6 124 252 118.7 254.5 118.5C257 118.3 256.6 123.8 254.5 126.9C252.4 130.1 254.5 130.8 256.2 130.8C257.9 130.8 267.5 127.8 272.1 125C275.6 122.9 275.2 125.4 274.8 126.6C274.7 127 274.4 127.3 274 127.5L272.4 128.7C271.9 129 271.6 129.5 271.6 130C271.6 130.9 271.5 132.5 270.9 134C270 136.4 271.8 139.8 269.8 141.4C267.7 143 223.5 174.3 200.6 169.9C177.7 165.8 167.1 134 167.1 134Z" fill="url(#paint12_linear)"/>
<path d="M156.3 370.4C156.3 370.4 162.1 384.9 172.9 384.1C173.2 387.1 182.4 410.1 181.6 411.9C180.8 413.7 147.3 379.1 148.2 375.1C149.1 371.1 156.3 370.4 156.3 370.4Z" fill="#2C4774"/>
<path d="M147.9 375.5L146.1 377.2C145.5 377.7 145.5 378.6 146 379.1C150.9 384.9 174.9 413.3 177.9 413.8C181.2 414.4 181.7 411.8 181.7 411.8L147.9 375.5Z" fill="#7F93B6"/>
<path d="M187.1 406V415.4C187.1 415.4 221.8 428.6 230.8 420.8C233.2 417.4 208.3 406.3 208.3 406.3C208.3 406.3 195.9 411.7 187.1 406Z" fill="#2C4774"/>
<path d="M187.1 415.5C187.1 415.5 204.6 421.5 214.2 422.2C223.8 423 228.3 423.2 230.8 420.9C230.7 421.9 230.6 422.7 230.4 423.3C230.1 424.3 229.3 425 228.3 425.2C225.3 425.8 217.8 426.8 208.3 424.7C197.9 422.5 191.5 420.1 188.7 419C187.7 418.6 187 417.6 187 416.5V415.5H187.1Z" fill="#7F93B6"/>
<path d="M193.9 30.3999L192.7 57.8999L204.9 61.8999L217.1 59.0999L221.8 61.9999C221.8 61.9999 226.4 47.0999 227 43.4999C227.7 39.9999 229.8 32.1 228.7 29.2C227.6 26.3 216.3 23.8999 216.3 23.8999L203.2 22.7999L193.9 30.3999Z" fill="url(#paint13_linear)"/>
<path d="M228.8 31.6C228.8 31.6 234.4 15.8 226.4 9.39996C218.4 2.99996 201.3 0.599976 201.3 0.599976L202.9 1.29997L205.2 2.19997C205.2 2.19997 196.7 0.299973 189 8.79997C192.7 9.09997 191.9 9.49997 191.9 9.49997L187.5 11.9L189.1 15.5C189.1 15.5 184.5 42.4 186.1 52.6C187.4 49.7 187.9 50.7 187.9 50.7C187.9 50.7 185.3 72.2 198.1 75.1C210.9 78 215.2 76.2 218.3 72.8C219.9 71.1 224.9 64.8 224.2 53.3C221.6 59.3 221.2 59.1 221.2 59.1C221.2 59.1 215.1 48.3 203.4 58.4C195.5 53.6 194 50.3 194.6 46.4C195.3 42.5 195.6 32.2 198 30.7C200.4 29.2 205.3 31.2 208.1 24C208.1 24 221.1 32.2 228.3 28.5C228.8 31.6 228.8 31.6 228.8 31.6Z" fill="url(#paint14_linear)"/>
<path d="M167.1 134C167.1 134 183.5 131.1 190.5 124C191 124.7 180.3 133 167.1 134Z" fill="#A1B8E2"/>
<path d="M237.6 120.1C237.6 120.1 238.5 118.4 242.6 118.6C242 118.9 239.3 118.5 237.6 120.1Z" fill="#A1B8E2"/>
<path d="M239.3 160L244.9 157.1V158.2L239.5 160.8L239.3 160Z" fill="#A1B8E2"/>
<path d="M218.9 5.09998C218.9 5.09998 197.9 -3.90003 192.5 24.9C192.2 24.9 191.9 24.8 191.6 24.8C187.1 24.8 183.4 29.4 183.4 35.1C183.4 40.8 187.1 45.4 191.6 45.4C196.1 45.4 199.8 40.8 199.8 35.1C199.8 30.5 197.4 26.7 194.2 25.3C196.8 16.9 204.5 -0.400028 223.3 7.19997L218.9 5.09998Z" fill="url(#paint15_linear)"/>
<path d="M191.6 41.5999C194.417 41.5999 196.7 38.7346 196.7 35.2C196.7 31.6653 194.417 28.7999 191.6 28.7999C188.783 28.7999 186.5 31.6653 186.5 35.2C186.5 38.7346 188.783 41.5999 191.6 41.5999Z" stroke="white" stroke-miterlimit="10"/>
<defs>
<linearGradient id="paint0_linear" x1="106.437" y1="510.051" x2="120.962" y2="406.699" gradientUnits="userSpaceOnUse">
<stop stop-color="white"/>
<stop offset="0.4446" stop-color="#FDFDFE"/>
<stop offset="0.6642" stop-color="#F5F8FD"/>
<stop offset="0.8339" stop-color="#E8EEF9"/>
<stop offset="0.978" stop-color="#D6E1F5"/>
<stop offset="1" stop-color="#D2DEF4"/>
</linearGradient>
<linearGradient id="paint1_linear" x1="181.029" y1="64.0047" x2="229.338" y2="64.0047" gradientUnits="userSpaceOnUse">
<stop stop-color="#A2B7E2"/>
<stop offset="0.2124" stop-color="#B8CAEA"/>
<stop offset="0.463" stop-color="#CBD9F1"/>
<stop offset="0.7219" stop-color="#D6E3F5"/>
<stop offset="1" stop-color="#DAE6F6"/>
</linearGradient>
<linearGradient id="paint2_linear" x1="245.741" y1="110.195" x2="275.873" y2="110.195" gradientUnits="userSpaceOnUse">
<stop stop-color="#2C74DD"/>
<stop offset="0.0117847" stop-color="#2D76DE"/>
<stop offset="0.2265" stop-color="#3C8DEC"/>
<stop offset="0.4532" stop-color="#479FF7"/>
<stop offset="0.6997" stop-color="#4EA9FD"/>
<stop offset="1" stop-color="#50ACFF"/>
</linearGradient>
<linearGradient id="paint3_linear" x1="261.759" y1="99.9181" x2="269.806" y2="99.9181" gradientUnits="userSpaceOnUse">
<stop stop-color="#2C74DD"/>
<stop offset="0.0117847" stop-color="#2D76DE"/>
<stop offset="0.2265" stop-color="#3C8DEC"/>
<stop offset="0.4532" stop-color="#479FF7"/>
<stop offset="0.6997" stop-color="#4EA9FD"/>
<stop offset="1" stop-color="#50ACFF"/>
</linearGradient>
<linearGradient id="paint4_linear" x1="260.196" y1="102.356" x2="272.013" y2="102.356" gradientUnits="userSpaceOnUse">
<stop stop-color="#2C74DD"/>
<stop offset="0.0117847" stop-color="#2D76DE"/>
<stop offset="0.2265" stop-color="#3C8DEC"/>
<stop offset="0.4532" stop-color="#479FF7"/>
<stop offset="0.6997" stop-color="#4EA9FD"/>
<stop offset="1" stop-color="#50ACFF"/>
</linearGradient>
<linearGradient id="paint5_linear" x1="257.144" y1="106.923" x2="268.961" y2="106.923" gradientUnits="userSpaceOnUse">
<stop stop-color="#2C74DD"/>
<stop offset="0.0117847" stop-color="#2D76DE"/>
<stop offset="0.2265" stop-color="#3C8DEC"/>
<stop offset="0.4532" stop-color="#479FF7"/>
<stop offset="0.6997" stop-color="#4EA9FD"/>
<stop offset="1" stop-color="#50ACFF"/>
</linearGradient>
<linearGradient id="paint6_linear" x1="258.631" y1="104.639" x2="267.474" y2="104.639" gradientUnits="userSpaceOnUse">
<stop stop-color="#2C74DD"/>
<stop offset="0.0117847" stop-color="#2D76DE"/>
<stop offset="0.2265" stop-color="#3C8DEC"/>
<stop offset="0.4532" stop-color="#479FF7"/>
<stop offset="0.6997" stop-color="#4EA9FD"/>
<stop offset="1" stop-color="#50ACFF"/>
</linearGradient>
<linearGradient id="paint7_linear" x1="255.973" y1="109.129" x2="262.978" y2="109.129" gradientUnits="userSpaceOnUse">
<stop stop-color="#2C74DD"/>
<stop offset="0.0117847" stop-color="#2D76DE"/>
<stop offset="0.2265" stop-color="#3C8DEC"/>
<stop offset="0.4532" stop-color="#479FF7"/>
<stop offset="0.6997" stop-color="#4EA9FD"/>
<stop offset="1" stop-color="#50ACFF"/>
</linearGradient>
<linearGradient id="paint8_linear" x1="254.621" y1="110.916" x2="260.331" y2="110.916" gradientUnits="userSpaceOnUse">
<stop stop-color="#2C74DD"/>
<stop offset="0.0117847" stop-color="#2D76DE"/>
<stop offset="0.2265" stop-color="#3C8DEC"/>
<stop offset="0.4532" stop-color="#479FF7"/>
<stop offset="0.6997" stop-color="#4EA9FD"/>
<stop offset="1" stop-color="#50ACFF"/>
</linearGradient>
<linearGradient id="paint9_linear" x1="151.251" y1="298.722" x2="259.604" y2="291.145" gradientUnits="userSpaceOnUse">
<stop stop-color="#2C74DD"/>
<stop offset="0.2436" stop-color="#307AE1"/>
<stop offset="0.5633" stop-color="#3A8AEB"/>
<stop offset="0.9239" stop-color="#4CA5FB"/>
<stop offset="1" stop-color="#50ACFF"/>
</linearGradient>
<linearGradient id="paint10_linear" x1="160.968" y1="398.37" x2="225.427" y2="211.167" gradientUnits="userSpaceOnUse">
<stop stop-color="#2C74DD"/>
<stop offset="0.0117847" stop-color="#2D76DE"/>
<stop offset="0.2265" stop-color="#3C8DEC"/>
<stop offset="0.4532" stop-color="#479FF7"/>
<stop offset="0.6997" stop-color="#4EA9FD"/>
<stop offset="1" stop-color="#50ACFF"/>
</linearGradient>
<linearGradient id="paint11_linear" x1="236.877" y1="91.9999" x2="164.687" y2="212.144" gradientUnits="userSpaceOnUse">
<stop stop-color="#AB71FF"/>
<stop offset="0.1678" stop-color="#A86CFF"/>
<stop offset="0.3767" stop-color="#9E5CFE"/>
<stop offset="0.6073" stop-color="#8E43FC"/>
<stop offset="0.8518" stop-color="#7820FA"/>
<stop offset="1" stop-color="#6807F8"/>
</linearGradient>
<linearGradient id="paint12_linear" x1="274.999" y1="144.541" x2="167.097" y2="144.541" gradientUnits="userSpaceOnUse">
<stop stop-color="#DAE6F6"/>
<stop offset="1" stop-color="#A2B7E2"/>
</linearGradient>
<linearGradient id="paint13_linear" x1="192.691" y1="42.3053" x2="228.976" y2="42.3053" gradientUnits="userSpaceOnUse">
<stop stop-color="#A2B7E2"/>
<stop offset="0.0788533" stop-color="#B5C7E9"/>
<stop offset="0.183" stop-color="#C6D5EF"/>
<stop offset="0.3127" stop-color="#D1DFF3"/>
<stop offset="0.4947" stop-color="#D8E4F5"/>
<stop offset="1" stop-color="#DAE6F6"/>
</linearGradient>
<linearGradient id="paint14_linear" x1="234.831" y1="28.8592" x2="182.612" y2="46.8397" gradientUnits="userSpaceOnUse">
<stop offset="0.00132211" stop-color="#2057BC"/>
<stop offset="0.3415" stop-color="#1F56B9"/>
<stop offset="0.5538" stop-color="#1D51B1"/>
<stop offset="0.7311" stop-color="#1A49A2"/>
<stop offset="0.8882" stop-color="#153E8E"/>
<stop offset="1" stop-color="#11337A"/>
</linearGradient>
<linearGradient id="paint15_linear" x1="183.412" y1="24.6515" x2="223.283" y2="24.6515" gradientUnits="userSpaceOnUse">
<stop stop-color="#2C74DD"/>
<stop offset="0.0117847" stop-color="#2D76DE"/>
<stop offset="0.2265" stop-color="#3C8DEC"/>
<stop offset="0.4532" stop-color="#479FF7"/>
<stop offset="0.6997" stop-color="#4EA9FD"/>
<stop offset="1" stop-color="#50ACFF"/>
</linearGradient>
</defs>
</svg>
