<svg width="251" height="276" viewBox="0 0 251 276" fill="none" xmlns="http://www.w3.org/2000/svg">
<path d="M222.2 3.89999H210.8C210.8 3.69999 210.9 3.59999 210.9 3.39999C210.9 1.89999 209.6 0.600006 208.1 0.600006H179.6C178.1 0.600006 176.8 1.89999 176.8 3.39999C176.8 3.59999 176.8 3.69999 176.9 3.89999H30.8C15.3 3.89999 2.60001 16.6 2.60001 32.1V75.5C1.20001 75.6 0.100006 76.8 0.100006 78.3V98.7C0.100006 100.2 1.20001 101.3 2.60001 101.5V106.9C1.20001 107 0.100006 108.2 0.100006 109.7V130C0.100006 131.5 1.20001 132.6 2.60001 132.8V223.4C2.60001 238.9 15.3 251.6 30.8 251.6H222.1C237.6 251.6 250.3 238.9 250.3 223.4V32.1C250.3 16.6 237.7 3.89999 222.2 3.89999Z" fill="url(#paint0_linear)"/>
<path d="M232.8 216.2H18.5C16.1 216.2 14.1 214.2 14.1 211.8V50.6C14.1 48.2 16.1 46.2 18.5 46.2H232.9C235.3 46.2 237.3 48.2 237.3 50.6V211.8C237.3 214.3 235.3 216.2 232.8 216.2Z" fill="white"/>
<path d="M153 25H114.1C112.9 25 112 26 112 27.1V27.4C112 28.6 113 29.5 114.1 29.5H153C154.2 29.5 155.1 28.5 155.1 27.4V27.1C155.2 25.9 154.2 25 153 25Z" fill="#A587F9"/>
<path d="M98.4 30.5C100.167 30.5 101.6 29.0673 101.6 27.3C101.6 25.5327 100.167 24.1 98.4 24.1C96.6327 24.1 95.2 25.5327 95.2 27.3C95.2 29.0673 96.6327 30.5 98.4 30.5Z" fill="#A587F9"/>
<path d="M14 114.8L15 114.3C15.4 114.1 15.7 113.8 15.8 113.4C15.9 113 15.9 112.6 15.7 112.2L14 109V114.8Z" fill="#E5EFF9"/>
<path d="M26.5 115.7C26.1 115 25.2 114.6 24.5 115L14 120V123.3L25.8 117.6C26.5 117.3 26.9 116.4 26.5 115.7Z" fill="#E5EFF9"/>
<path d="M201.4 260.5C207.4 259.6 213.1 258.4 217.6 257.2C222.6 255.8 230.9 253.9 241.1 253.5V248.2C232.7 248.6 224.2 249.9 216.2 252.1C212.6 253.1 207.9 254.1 203 254.9C201.8 250.4 199.1 240.1 196.6 228.9C202.6 228.7 209.5 228.2 218 227.2C223.9 226.6 231.6 226.3 239.6 226.2C239.3 224.5 239.2 222.7 239.3 220.9C231.3 221 223.5 221.3 217.5 222C208.6 223 201.7 223.5 195.6 223.6C194.6 218.8 193.7 213.9 193 209.4C192.2 204.1 191.3 197.8 190.4 191.3C192.4 191.1 196.5 190.9 201.2 192C204.9 192.9 213.4 194 221.5 194.5C225.7 194.8 232.2 195.1 237.6 194.8C237.6 194.7 237.6 194.6 237.6 194.5C237.6 193.8 237.6 193.1 237.6 192.5C226.7 193.1 207.7 191.1 201.8 189.7C196.7 188.5 192.3 188.7 190.2 188.9C189.7 185.7 189.3 182.4 188.8 179.1L191.6 179C191.7 179 191.7 179 191.8 179C192.4 178.9 192.9 178.4 192.9 177.7L193 170.2C193.8 170.4 194.7 170.4 195.5 170C196.7 169.3 197.3 167.9 197.1 165.8C197 162.9 196.9 161.1 196.9 160.2L201 159.5C201.4 159.4 201.7 159.2 201.9 158.9C202.1 158.6 202.2 158.2 202.1 157.9C202.1 157.9 202 157.5 201.9 156.6C203.6 156.7 205.4 156.7 207.1 156.8L206.7 158.9C206.6 159.4 206.9 159.8 207.4 159.9C207.9 160 208.3 159.7 208.4 159.2L208.9 156.8C210.4 156.9 211.9 156.9 213.4 157L213.5 161.6C213.5 162.1 213.9 162.4 214.3 162.4H214.4C214.8 162.3 215.1 162 215.1 161.6L215 157.1C216.2 157.2 217.5 157.3 218.7 157.3L218.8 161.6C218.8 162.2 219.3 162.8 220 162.7C220.1 162.7 220.1 162.7 220.2 162.7C220.8 162.6 221.2 162.1 221.2 161.5L221.1 157.4C221.9 157.5 222.6 157.5 223.4 157.6L223.2 161.3C223.2 161.9 223.7 162.5 224.3 162.5C224.9 162.5 225.5 162 225.5 161.4L225.7 157.8C226.8 157.9 227.9 158 229 158.2L228.2 161.2C228.1 161.6 228.2 161.9 228.4 162.2C228.6 162.5 229 162.6 229.3 162.6L232.5 162.5L231.1 183.7C231.1 184.3 231.5 184.9 232.2 184.9C232.3 184.9 232.4 184.9 232.5 184.9C233 184.8 233.4 184.4 233.5 183.8L235 161.3C235 161 234.9 160.7 234.7 160.4C234.5 160.2 234.2 160 233.8 160L230.9 160.1L231.4 158.3C233.7 158.6 235.8 158.9 237.7 159.3C237.7 158.2 237.8 157.2 237.8 156.1C237.8 155.8 237.8 155.4 237.8 155.1C237.8 155.4 237.7 155.7 237.7 156C233.2 155.2 228 154.6 222.3 154.1C222.6 152.6 223.1 149.1 222.3 144.5C223.9 144.7 225.8 144.9 227.7 145.2C231.6 145.7 234.9 146.1 237.6 146.5C237.5 145.7 237.5 144.9 237.4 144.1C234.1 143.7 230.7 143.3 227.9 142.9C225.6 142.6 223.5 142.3 221.7 142.1C220.7 138.1 219.9 134.6 219.3 132.5L236.5 129.2C236.5 128.2 236.5 127.2 236.5 126.1L218.1 129.6C217.9 129.5 217.6 129.4 217.3 129.5C217.1 129.6 216.9 129.7 216.7 129.8L198.1 133.4C197.8 131.5 197.5 129.5 197.2 127.4C196.8 124.3 196.4 121.4 196 118.8C209.3 116.6 229.8 113.3 235.6 112.9C235.9 116.1 236.2 119.5 236.5 123C236.6 121.9 236.6 120.9 236.7 119.8C236.1 109.4 235.5 98.9 235.3 88.4C234.3 82.6 233.3 77.7 232.4 73.8L235.3 72.5C235.3 71.6 235.4 70.8 235.4 69.9L231.9 71.4C230.9 67.2 230.1 64.4 229.8 63.1C231.8 62.4 233.9 61.6 235.9 60.9C236 59 236.2 57 236.3 55.1C232.9 56.3 229.5 57.6 226 58.8L219.4 45.5C218.3 45.5 217.2 45.5 216.1 45.5L223.2 59.8C218.9 61.3 214.7 62.9 210.6 64.3L201.6 57.1L197 54.4C196.6 54.1 196.2 54.1 195.8 54.3C193.5 55.5 191 56.2 190.6 55.8C190.6 55.8 190.5 55.5 190.7 54.7C193.3 53.4 198.3 50.9 203.3 48.5C205.7 47.3 207.8 46.3 209.7 45.5C207.9 45.5 206.1 45.5 204.3 45.5C203.7 45.8 203 46.1 202.4 46.4C197.5 48.8 192.5 51.3 189.9 52.6C189.8 52.6 189.7 52.6 189.6 52.7L181 55.4L176.6 56.2C176.1 54.6 175.7 53.1 175.4 51.9C175.1 50.5 174.8 49.1 174.5 47.8C174.3 47 174.1 46.3 174 45.6C173.1 45.6 172.2 45.6 171.3 45.6C171.5 46.5 171.7 47.5 172 48.4C172.3 49.7 172.6 51 172.9 52.4C173.2 53.7 173.6 55.3 174.2 57.1L167 62C166.5 62.4 166.3 63.1 166.7 63.6C167.1 64.1 167.8 64.3 168.3 63.9L175 59.3C175.4 60.3 175.7 61.4 176.2 62.6C173.3 64.6 169.9 66.6 166.1 68.1C163.7 62.2 160.9 55 158.3 46.9L163.7 46.1C163.9 46.2 164 46.2 164.2 46.1L169 45.4C163.4 45.4 157.8 45.4 152.2 45.4C152.3 45.8 152.4 46.2 152.5 46.5C152.3 46.4 152.1 46.3 151.8 46.3L132.7 46.4C132.4 46.4 132 46.5 131.8 46.8C131.6 47.1 131.5 47.4 131.5 47.7L133.1 56.8C131.2 56.8 129.1 56.8 127 56.9L126.9 54.4L130.9 54.1C131.5 54.1 132 53.5 132 52.9C132 52.3 131.4 51.8 130.8 51.8L123.7 52.2C123.1 52.2 122.6 52.8 122.6 53.4C122.6 54 123.1 54.5 123.7 54.5H124.6L124.7 56.8C115.8 57.1 109.6 57.9 106.4 59.1H106.3L97.5 54.8L101.6 46.5C103.9 46.9 106.1 47.2 108.2 47.3C123 48 126.2 47.8 127 46.3C127.1 46.1 127.2 45.8 127.4 45.3C117 45.3 106.5 45.3 96.1 45.4C97.1 45.6 98.2 45.9 99.2 46.1L95.3 53.8L82.9 47.7L83 45.4C82.4 45.4 81.9 45.4 81.3 45.4L81.2 47.5C78.6 47.5 69.8 47.5 60.5 47.4C60.5 46.8 60.5 46.1 60.6 45.4C58.8 45.4 57 45.4 55.3 45.4C55.3 46.1 55.3 46.7 55.2 47.4C51.1 47.4 47.1 47.4 43.7 47.4L44 45.5C43.2 45.5 42.4 45.5 41.6 45.5L41.3 47.4C37.6 47.4 34.9 47.4 34.1 47.3C32.1 47.2 30.1 47.9 28.6 48.7C28.2 47.7 27.6 46.6 27 45.5C24.9 45.5 22.8 45.5 20.7 45.5C22.1 47.6 23.1 49.2 23.6 50.7C25 54.2 24.6 57.3 23.8 63.5C23.7 64.3 23.6 65.2 23.5 66.1C22.3 75.9 23.4 83 24.5 87.2L14.3 88V90.3L22.8 89.6C22.8 89.7 22.8 89.8 22.8 89.9L24.8 96.9L21.1 97.6C21.1 97.6 21.1 97.6 21 97.6L14.7 98.8L14.3 97.6L14.2 102C14.3 102 14.1 102 14.2 102L20.3 100.8L22.7 107.2L17.4 110C16.7 110.4 16.4 111.3 16.8 112C17.2 112.7 18.1 113 18.8 112.6L25.3 109.2C26 108.8 26.3 108 26 107.3L23.3 100.2L25.6 99.8L29.5 113.2L27.8 113.7C27.4 113.8 27 114.2 26.8 114.6C26.6 115 26.7 115.5 26.9 115.9L46.1 150C45.7 150.2 45.4 150.4 45 150.7C43.9 151.4 42.7 152.2 41.5 153L24 128.4C23.6 127.8 22.8 127.6 22.2 127.9L14 132L14.1 139.5C16.2 141.5 17.4 143.2 18.7 144.4C21.5 146.9 22.4 147.8 22.5 148.9V150.4C20.3 151 17.5 152.3 14 154.2V160.3C18.4 157.8 22.1 155.9 24.2 155.5C25.5 156.6 27.8 158.7 30.2 161.2C24.6 164.8 19.3 168.1 14.2 170.6L14.1 176.6C19.8 174.1 26.1 170.3 33.6 165.5C35 167.5 36.2 169.7 36.8 172C37.2 173.6 37.9 176.6 38.7 180.5L33.5 182.1L32.7 178.2C32.5 177.4 31.7 176.8 30.9 177C30.1 177.2 29.6 177.9 29.7 178.8L30.8 184.3C30.9 184.7 31.1 185.1 31.5 185.3C31.8 185.5 32.2 185.6 32.5 185.5C32.6 185.5 32.6 185.5 32.7 185.5L39.2 183.5C40 187.8 40.9 192.8 41.7 198C42.9 205.8 43.5 211.3 43.8 214.9L23.2 219.1C22.8 217.1 22.4 214.9 21.8 212.6L38.7 209.6C39.5 209.5 40.1 208.7 39.9 207.9C39.8 207.1 39 206.5 38.2 206.7L21.2 209.7C19.1 201.1 16.5 191.4 14.3 185.3V202.8C16 208.9 17.2 215.1 18.1 220L14.3 220.3L13.7 216.9C13.4 219.3 12.7 221.5 11.6 223.5H11.9L15.3 241.4C15.4 242.1 16 242.6 16.6 242.6L18.8 242.8C19.3 245.9 20.2 248.8 21.7 250.4C22.2 250.9 22.6 251.3 23 251.7C18.5 252.6 13.7 254.4 8.89999 256.3H8.79999V262C9.49999 261.7 10.1 261.5 10.8 261.2C20.4 257.5 29.5 254 33.6 258.9C34.7 260.3 35.9 261.6 37 262.9C34.6 268.9 34.7 273.5 35 275.7H40.4C40.4 275.5 39.7 272.8 40.8 268.4C41.1 268.7 41.6 268.9 42.1 268.8C42.2 268.8 42.3 268.8 42.4 268.7H42.5C45.2 271.4 47.7 273.8 49.7 275.7H57.8C56.7 274.8 52.8 271.5 48 266.7L51.9 265.3C52.7 265 53.1 264.2 52.8 263.4C52.5 262.6 51.7 262.2 50.9 262.5L45.7 264.4C44.9 263.6 44.2 262.8 43.4 261.9C43.9 260.9 44.5 259.9 45.2 258.9C45.8 257.9 46.6 256.8 47.4 255.8C48.6 254.2 49.7 252.6 50.5 251.2C50.6 251 50.7 250.8 50.8 250.6C54.7 250.2 59.5 249.5 64.2 248.4L71.4 275.7H74.5L67.1 247.7C68.1 247.4 69 247.1 69.9 246.8L78.5 275.7H81.6L72.7 245.8C74.2 245.2 75.6 244.5 76.9 243.7C80.8 241.4 85.6 239.8 91.7 238.5L94.9 248.8L101.6 270.4C100.9 270.7 100.5 270.9 100.5 270.9C100.4 270.9 100.4 271 100.3 271C96.9 272.8 93.7 274.3 90.7 275.6H103C104.4 275 109.1 272.9 113.5 270.9C114.3 273.3 114.8 274.8 114.9 275.2C114.9 275.3 115 275.5 115.1 275.6H121.5C120.9 274.9 120.3 274.2 119.9 273.3C119.7 272.7 119.2 271.1 118.4 268.7C118.9 268.4 119.4 268.2 119.9 268C125.4 265.4 131.6 264 138.6 263.9L139.1 275.6H161.4C166.5 274.7 170.8 273.9 171.7 273.6C175.3 272.5 219.8 265.8 223.3 266.2C223.5 266.3 223.8 266.3 224 266.3C224.5 266.2 224.9 265.9 225.1 265.5C225.5 264.8 225.2 263.9 224.4 263.5C223.8 263.2 222.6 262.6 197.7 266.3C186.2 268 172.6 270.2 170.8 270.8C167.7 271.8 147.3 275.1 142 274.7L141.5 263.9C142.2 263.9 143 264 143.8 264C146 264.1 148.5 264.2 151.1 264.2L151.3 271.7C151.3 272.5 152 273.2 152.8 273.2C152.9 273.2 152.9 273.2 153 273.2C153.7 273.1 154.3 272.4 154.2 271.7L154 264.2C164.6 264 175.9 263.1 177.3 263C182.1 262.9 191.9 262 201.4 260.5ZM18 229.4C17.9 230.9 17.7 235.1 18.1 239.6H17.7L14.6 223.1L18.8 222.7C19.3 223.8 20 224.7 20.8 225.6C19.2 226.4 18 227.6 18 229.4ZM190 223.5C184.3 223.4 179.1 222.8 173.3 221.9C173.1 221.9 172.8 221.9 172.6 221.9C172.5 221.9 170.2 222.2 166.6 222.6L164.1 185.8L168.1 185.7L168.4 199.9C168.4 200.2 168.5 200.5 168.8 200.7C169 200.9 169.4 201 169.7 201L186.1 199.8C186.6 203.5 187.1 207 187.6 210.1C188.2 214.3 189 218.9 190 223.5ZM162.4 182.8L156.8 182.9L156.6 176L156.4 167.9L170 170.1C170.4 170.2 170.9 170 171.2 169.7C171.5 169.4 171.7 169 171.7 168.5L171.1 156.2C171.1 156.2 171.1 156.2 171.2 156.2H172.1C172.9 156.2 173.7 156.2 174.7 156.2L172.6 182.6C172.4 182.6 172.2 182.6 172 182.6H171.9L162.4 182.8ZM163.6 222.9C161.8 223.1 159.9 223.3 157.8 223.6L156.9 185.9L161.1 185.8L163.6 222.9ZM66.8 224.8L67.4 227.1C67.1 227.2 66.9 227.3 66.6 227.4C60 230 56.6 229.6 54.8 228.8C53.4 228.1 52.9 227.1 52.8 226.7C53.1 226.3 54.5 224.7 60.5 223.3C70.1 221 86.7 214.9 92.7 212.7C93.8 214.6 94.8 216.4 95.6 218C90.6 219.3 80.4 222.2 70.2 226L69.7 224C69.5 223.2 68.7 222.7 67.9 222.9C67.1 223.2 66.6 224 66.8 224.8ZM153 152.2L143.6 151.9C143.6 151.7 143.7 151.5 143.6 151.4L139.5 112.5C142.1 112.5 144.8 112.3 147.5 111.7L153 152.2ZM150.4 111C151.3 110.7 152.2 110.3 153.1 109.9C153.4 109.7 153.7 109.6 154 109.5L156 129.4L153 129.9L150.4 111ZM153.1 155.6L153.3 166.1C153.3 166.1 153.3 166.1 153.3 166.2L153.5 174.7L149.8 175.1L148.5 155.6H153.1ZM113.7 182.3C114.3 182.9 115.3 182.8 115.8 182.2L118.6 179.1L119.9 179.7C119.8 179.9 119.7 180.2 119.6 180.4C119.3 181.1 119 181.7 118.8 182.3C116.9 187.3 118.5 197.1 118.7 198L118.8 199L113.7 200.6L109.4 154.1L123.4 154.6C124.3 165.7 122.7 172.4 121 177L118.9 176.1C118.3 175.8 117.6 176 117.2 176.5L113.7 180.4C113 180.8 113.1 181.8 113.7 182.3ZM105.6 142.3C105.2 141.6 104.3 141.3 103.6 141.7L98.3 144.5L91.4 130.2C95.1 127.5 99.1 124.4 103.6 120.9L110.3 131.8L113.7 143.2L116 151L101.2 150.5L99.6 147.2L105 144.4C105.7 143.9 106 143 105.6 142.3ZM94.4 143.3L97.8 150.3L85.6 149.9L94.4 143.3ZM81.7 149L77.3 139.7C80.7 137.6 84.5 135 88.8 131.9L93 140.5L81.7 149ZM126.4 154.6L136.5 155L138.1 176.1L123.9 177.5C125.6 172.7 127.2 165.8 126.4 154.6ZM124.8 151.3H124.7L119.2 151.1L117 144L124 143.2L125.6 151.3H124.8ZM121.6 183.4C121.8 182.8 122.1 182.2 122.4 181.6C122.5 181.3 122.7 181 122.8 180.6L138.7 179.1L139.7 188L120.9 190C120.8 187.5 120.9 185 121.6 183.4ZM139.5 155.1L145.5 155.3L146.9 175.2L141.2 175.7C141.2 175.6 141.1 175.5 141.1 175.4L139.5 155.1ZM139.6 141.5L140.7 151.7V151.8L128.8 151.4L127.1 142.9L132.2 142.3L139.6 141.5ZM132.9 139.2C131.2 135.1 124.7 119.6 124.1 115C124 114.5 124 114 123.9 113.6C124.4 113.1 125.8 111.8 128.6 112C129.2 112 130 112.1 130.9 112.2C132.4 112.3 134.4 112.5 136.5 112.5L139.2 138.5L132.9 139.2ZM124.2 125.4C126.2 130.8 128.6 136.6 129.8 139.6L116.1 141.1L113 130.7C113 130.6 113 130.6 112.9 130.5L124.2 125.4ZM111.4 127.9L105.8 118.9C108.3 116.9 111 114.7 113.8 112.4C115.4 111.1 117.1 109.8 119.1 108.5C119.8 109.9 120.6 112.2 121.1 115.4C121.3 116.9 122.1 119.5 123.1 122.5L111.4 127.9ZM115.5 90.6C119.7 87.8 125.2 84 130.9 79.9L138.7 91.9C132.6 94.7 126.7 97.7 121.4 100.8L115.5 90.6ZM118.9 102.4C115.8 104.4 112.9 106.3 110.5 108.3C101.2 116 93.5 122 87 126.7C86 123.3 83.7 117.6 78.9 110.6C78.2 109.6 77.6 108.6 77 107.6L109.3 94.5H109.4C110.3 94.1 111.5 93.3 113.1 92.3L118.9 102.4ZM108 91.7L106.2 92.4L102.7 78.7L108.3 76.7L111.9 89.4C110.2 90.4 108.9 91.2 108 91.7ZM103.9 93.3L75.3 104.9C74 102.7 73 100.7 72.2 98.9L88.6 93.4L102.4 88.7L103.9 93.3ZM95.1 88.8C94.8 88.3 94.4 87.3 94.1 85.6C93.9 84.5 93.6 83.2 93.4 82L99 80L100.5 79.4L102.2 86.3L95.1 88.8ZM98.2 77.8L92.9 79.6C92.4 77.3 92 74.9 91.5 72.7L96 71L99.7 77.3L98.2 77.8ZM91.8 86C92.1 87.6 92.5 88.7 92.9 89.5L87.9 91.2L71.3 96.8C69.9 93.4 69.3 91.3 69.3 91.3C69.3 91.2 69.2 91.1 69.2 91C69.1 90.9 69.1 90.7 69 90.6L91.1 82.8C91.4 83.9 91.6 85 91.8 86ZM68.1 88.4C68.1 88.3 68 88.2 68 88.1C66.9 85.5 65.7 82.6 64.5 79.4L89.3 73.5C89.8 75.8 90.3 78.2 90.7 80.5L68.1 88.4ZM63.7 77.2C61.8 71.8 60.2 65.9 59.8 60.3H86.5C86.9 62.1 87.7 66.3 88.8 71.2L63.7 77.2ZM63.1 90.1C63.5 91 63.9 91.9 64.2 92.7C64.5 93.8 66 99 69.9 106L60 107.8H59.9L42.6 110.9C36.2 99.7 31.3 91.4 30.5 89.9C30.4 89.7 30.2 89.2 29.9 88.2L60.8 84.3C61.6 86.5 62.4 88.4 63.1 90.1ZM59.3 111L68.5 129.7C68.8 130.3 69.5 130.6 70.1 130.5C70.2 130.5 70.4 130.4 70.5 130.4C71.2 130 71.5 129.1 71.2 128.4L62.3 110.5L71.3 108.9C72.2 110.4 73.2 112 74.3 113.6C79.9 121.8 81.7 127.8 82.2 130C72.8 136.5 66.2 140.2 60.6 143C54.9 133 49 122.7 43.9 113.8L59.3 111ZM74.5 141.4L79.5 152C79.8 152.6 80.3 152.9 80.9 153L86.7 153.2C86.6 153.2 86.5 153.3 86.3 153.4L71.6 162.4C69.1 157.8 66.2 152.8 63.3 147.6C66.6 145.9 70.2 144 74.5 141.4ZM79.2 161.3L80.3 163C80.8 163.7 81.7 163.9 82.4 163.4C83.1 162.9 83.3 162 82.8 161.3L81.7 159.7L87.9 155.9C88.6 155.5 88.8 154.5 88.4 153.8C88.2 153.5 87.9 153.3 87.6 153.2L98 153.6L76.5 171.3C75.4 169.4 74.3 167.2 73.1 165L79.2 161.3ZM73.6 177C75.4 180.3 76.7 182.9 77.5 184.7C80.9 192.1 85.6 200.2 89.7 207.4C89.8 207.6 89.9 207.8 90.1 208C86.8 209.2 81.3 211.2 75.4 213.2L74.5 209.9L83.2 207.2C83.6 207.1 84 206.8 84.1 206.4C84.3 206 84.3 205.5 84.1 205.1L72.6 182C72.4 181.6 72.1 181.4 71.7 181.2C71.3 181.1 70.9 181.1 70.5 181.3C70.4 181.4 68.8 182.2 66.8 183.3L65.5 180.8C68.7 179.4 71.8 177.9 73.6 177ZM71.6 210.9L72.5 214.2C67.7 215.8 63 217.2 59.3 218.1C58.3 218.3 57.4 218.6 56.5 218.9L56 215.8L71.6 210.9ZM55.7 212.8L55.1 208.9L69.9 204.5L70.9 208.1L55.7 212.8ZM72 200.7L68.1 186.2C69 185.7 69.9 185.2 70.5 184.9L77.6 199.1L72 200.7ZM79 201.8L80.6 205L73.7 207.1L72.8 203.6L79 201.8ZM69.1 201.6L54.6 205.9L52.9 194.6C54.5 194.1 57.3 193 60.5 190.8C62 189.8 63.7 188.7 65.3 187.8L69.1 201.6ZM95.2 206.3C94.9 205.8 94.6 205.3 94.3 204.8C90.2 197.7 85.6 189.6 82.3 182.5C81.4 180.6 79.9 177.7 78 174.1L101.8 154.5C102 154.3 102.2 154.1 102.2 153.9L106.2 154L109.3 187.3L98.5 190.8C97.7 191.1 97.3 191.9 97.5 192.7C97.8 193.5 98.6 193.9 99.4 193.7L109.5 190.5L110.5 201.7L95.2 206.3ZM119.4 204.4L120.6 214.4L121.9 228.2C119.7 228.5 117.6 228.8 115.7 229.1C113.2 229.5 110.7 229.9 108.4 230.2C107.5 230.3 106.7 230.5 105.8 230.6C104.5 226.3 103.5 223.1 103.2 221.9C103 221.1 102.6 220 102 218.8C102 218.7 102 218.7 101.9 218.6C100.9 216.5 99.6 214 97.9 211L119.4 204.4ZM121.7 198.2L121.6 197.6V197.5C121.4 196.5 121.2 194.8 121 192.9L141.4 190.8C141.8 190.8 142.2 190.6 142.4 190.2C142.7 189.9 142.8 189.5 142.7 189.1L141.5 178.7L153.5 177.5L153.7 184.3L153.9 192.2C153.6 192.2 153.4 192.2 153.1 192.2L121.7 198.2ZM127.1 202.7L127.3 217C127.3 217.8 128 218.5 128.8 218.5C128.9 218.5 129 218.5 129 218.5C129.7 218.4 130.3 217.7 130.2 217L130 202.2L136.8 200.9L137.2 208.8C137.2 209.6 137.9 210.3 138.8 210.2C138.9 210.2 138.9 210.2 139 210.2C139.7 210.1 140.3 209.4 140.2 208.6L139.8 200.3L147.7 198.8L149.5 216.9C149.6 217.7 150.3 218.3 151.1 218.2H151.2C152 218.1 152.5 217.4 152.4 216.6L150.6 198.2L154.1 197.6L154.7 223.9C145.6 225 134.4 226.4 124.8 227.7L123.6 214L122.4 203.5L127.1 202.7ZM153.3 132.5L156.2 132.1L158.2 152.1C158.2 152.2 158.2 152.4 158.3 152.5L156 152.4V152.3L153.3 132.5ZM174.9 182.7L177 156.2C177.9 156.2 178.8 156.2 179.8 156.2C180.4 160.5 181.1 165.1 181.7 169.5C182.2 172.8 182.7 176.3 183.1 179.7C183.3 180.9 183.4 182 183.6 183.2C181.2 183.1 177.6 182.9 174.9 182.7ZM184.1 186.2C184.6 190 185.2 193.8 185.7 197.4L170.7 198.5L170.4 186L172.6 185.5C175.4 185.8 180.9 186.1 184.1 186.2ZM181.1 131.1C180.6 128.4 180.1 125.5 179.6 122.5L186.9 120.2C187.5 120 187.9 119.4 187.7 118.7C187.5 118.1 186.9 117.7 186.2 117.9L179.2 120.1C178.9 118.4 178.6 116.7 178.3 115L192.3 112.5C193 116.9 193.7 121.9 194.6 128C194.9 130.2 195.2 132.2 195.5 134.2L182.2 136.7C181.8 135 181.4 133.1 181.1 131.1ZM177.7 112.4C177.2 110 176.8 107.5 176.3 105.2L190.4 103.1C190.8 105.2 191.3 107.5 191.7 110L177.7 112.4ZM175.9 102.5C175.3 99.3 174.6 96.3 174 93.5L185.9 88.1C187.6 92 188.8 95.9 189.9 100.5L175.9 102.5ZM173.4 91.2C172.8 88.6 172.2 86.2 171.6 84.3C176.4 82.5 180.3 81.2 182.6 80.4C183.4 82.3 184.2 84.2 185 85.9L173.4 91.2ZM175.8 132C176.4 135.4 176.9 138.5 177.4 141.2C177.9 144.2 178.6 148.3 179.3 152.8C176.4 152.8 173.9 152.8 172 152.8H171.2H170.9L170.8 151.5V151.4V151.3L166.7 130.5L170.8 129.9C171.1 129.8 171.5 129.6 171.7 129.3C171.9 129 172 128.6 171.9 128.2L168.1 107.9C168 107.2 167.3 106.7 166.5 106.8C165.8 106.9 165.3 107.6 165.4 108.4L169 127.4L166.2 127.8L162.1 107.1C165.8 106.4 168.7 106.2 168.7 106.2H168.8L171 105.9C172.8 114.5 174.4 124 175.8 132ZM159.2 131.6L163.7 130.9L167.8 151.8V152.7L161 152.5C161.1 152.3 161.2 152 161.1 151.7L159.2 131.6ZM163.2 128.3L159 129L157 108.5C157.8 108.3 158.5 108.1 159.3 107.9L163.2 128.3ZM160.3 155.8L160.4 159C160.4 159.6 160.9 160.2 161.6 160.1C162.2 160.1 162.8 159.6 162.7 158.9L162.6 155.8L168 156L168.5 166.7L156.2 164.7L156 155.6L160.3 155.8ZM189.9 176.3H188.9L187.4 171.1C187.3 170.6 187.3 170.1 187.2 169.6L190 169.4L189.9 176.3ZM190 166.8L186.8 167C186.3 163.3 185.8 159.7 185.3 156.2C186.9 156.2 188.5 156.2 190.3 156.3L190 166.8ZM195.1 157.7C194.5 157.8 194 158.3 194 158.9C194 159 193.9 160.5 194.2 165.9C194.3 167.4 193.9 167.6 193.9 167.6C193.7 167.7 193.2 167.6 192.7 167.3L192.9 156.3C194.9 156.3 196.9 156.4 198.9 156.4C198.9 156.6 199 156.8 199 156.9L195.1 157.7ZM207.3 153.4V152.6L210.6 152.5V153.6C209.5 153.5 208.4 153.5 207.3 153.4ZM219.6 144.4C220.6 149.3 219.9 152.9 219.7 154H219.6C217.2 153.8 214.8 153.7 212.4 153.5V151.5C212.4 151.3 212.3 151.1 212.1 150.9C211.9 150.7 211.7 150.7 211.5 150.7L206.5 150.8C206 150.8 205.7 151.2 205.7 151.7V153.3C204.1 153.2 202.6 153.2 201.1 153.1C200.7 150.8 200.2 147.5 199.5 143.3C201.2 143 202.7 142.8 203.7 142.6C206.8 142.1 209.6 142.8 212.3 143.4C214.1 143.8 215.7 144.1 217.3 144.2C217.7 144.3 218.5 144.3 219.6 144.4ZM216.8 133.2C217.3 135.1 218.1 138.3 219 142.1C218.3 142 217.7 142 217.3 142C216 142 214.4 141.6 212.8 141.3C210 140.7 206.8 140 203.3 140.5C202.3 140.7 200.8 140.9 199.1 141.2C198.9 139.8 198.7 138.4 198.4 136.8L216.8 133.2ZM198.3 153.1C193.5 153 188.9 152.9 184.8 152.9C184.4 150.5 184.1 148.2 183.8 146.1C186.9 145.5 192.3 144.6 196.9 143.8C197.4 147.7 197.9 150.8 198.3 153.1ZM196.4 141.5C191.8 142.3 186.4 143.2 183.3 143.8C183.1 142.5 182.9 141.3 182.7 140.3C182.7 140.1 182.6 139.9 182.6 139.7L195.8 137.2C196 138.7 196.2 140.2 196.4 141.5ZM235.2 110.3C227.2 110.9 202.4 115 195.4 116.2C195.2 114.8 195 113.5 194.8 112.2L204.2 110.5C204.2 110.5 204.2 110.4 204.3 110.4L219.8 106.8C220.4 106.7 229.1 105.1 234.6 105.1C234.8 106.7 235 108.5 235.2 110.3ZM234.3 102.4C228.4 102.5 219.7 104.1 219.3 104.2C219.3 104.2 219.3 104.2 219.2 104.2L203.7 107.8L194.4 109.4C194 106.9 193.6 104.7 193.1 102.6L206.9 100.5H207C207.2 100.5 224.7 96.7 233.4 95.8C233.7 97.9 234 100.1 234.3 102.4ZM212.1 69.8L215.1 74.5C215.4 74.9 215.8 75.1 216.3 75C216.4 75 216.6 74.9 216.7 74.8C217.2 74.5 217.4 73.7 217.1 73.2L214.4 69C218.5 67.5 222.7 66 226.9 64.5C227.3 65.9 228.1 68.7 229.1 73L227.1 73.9L223.5 75.5C223.2 75.6 223 75.9 222.9 76.1C222.8 76.4 222.8 76.7 222.9 77L224.9 81.4L225.4 83.1C225.6 83.7 226.1 84 226.7 83.9H226.8C227.4 83.7 227.8 83.1 227.6 82.5L227.1 80.7C227.1 80.7 227.1 80.6 227 80.6L225.5 77.2L228 76.1L229.6 75.4C230.6 80.1 231.8 86.1 233 93.3C224.3 94.2 207.7 97.8 206.5 98L192.6 100.1C191.5 95.2 190.1 91.2 188.4 87L187.8 85.7C187 83.9 186.1 81.8 185.2 79.6C190.3 77.7 200.5 74 212.1 69.8ZM188.1 56.3C188.2 57 188.4 57.6 188.9 58C189.9 58.8 191.5 58.9 193.9 58C194.8 57.7 195.5 57.3 196.1 57.1L207.9 65.7C197.1 69.6 187.9 72.9 183.1 74.6C181.6 71 180.1 67.3 178.8 63.8C181.3 62 183.3 60.2 184.9 58.8C186.1 57.8 187.4 56.7 188.1 56.3ZM181.1 58.1H181.2L182.8 57.6C181.4 58.8 179.8 60.1 177.9 61.6C177.6 60.7 177.2 59.8 176.9 58.9L181.1 58.1ZM176.5 65.4C177.7 68.6 179.1 72 180.5 75.4C178.2 76.2 174.4 77.5 169.8 79.1C169.3 77.7 168.6 76.2 167.8 74.3C167.3 73.2 166.9 72 166.3 70.8C170.2 69.3 173.6 67.4 176.5 65.4ZM166.6 86.1C167.8 90.4 169.2 96.5 170.5 103.3L168.5 103.6C167.6 103.7 158.4 104.3 151.9 107.5C148.1 109.4 143 109.9 138.5 109.8C138.2 109.7 138 109.6 137.7 109.6C137.5 109.6 137.4 109.7 137.2 109.7C134.9 109.6 132.7 109.5 131.1 109.3C130.2 109.2 129.4 109.2 128.7 109.1C126.1 109 124.3 109.7 123.2 110.5C122.7 108.9 122.2 107.6 121.7 106.7C131.1 100.8 143.6 95.2 154.9 90.5L156.4 93.7L152 95.5C151.5 95.7 151.2 96.2 151.3 96.8C151.4 97.2 151.6 97.5 151.9 97.6C152.1 97.7 152.4 97.8 152.7 97.7C152.8 97.7 152.8 97.7 152.9 97.6C153.5 97.4 159 95.4 161.8 93.7C162.4 93.4 162.5 92.6 162.2 92.1C161.9 91.5 161.1 91.4 160.6 91.7C160 92 159.3 92.4 158.6 92.8L157 89.5C160.4 88.5 163.7 87.2 166.6 86.1ZM163 76.4C163.7 78.2 164.4 79.7 164.9 81C157.7 83.7 149.3 87.1 140.9 90.9L132.9 78.5C134.1 77.6 135.3 76.8 136.5 75.9L141.6 83.5C141.8 83.8 142.2 84 142.5 84C142.9 84 143.2 83.8 143.5 83.5L151.2 73.6L155.7 70.9L156.5 72.2C156.8 72.7 157.6 72.9 158.1 72.6C158.6 72.3 158.8 71.5 158.5 71L157.1 68.8C157 68.7 157 68.6 156.9 68.5L153.7 63.5C155 62.5 156.2 61.7 157 61C159.1 67 161.3 72.2 163 76.4ZM138.3 74.6C143.3 71 148 67.6 151.6 64.9L154.3 69.1L149.7 71.9C149.6 72 149.5 72.1 149.4 72.2L142.6 81L138.3 74.6ZM125.1 59.9C125.2 60 125.4 60 125.6 60L141.8 59.9C142.4 59.9 143 59.4 143 58.8C143 58.2 142.5 57.6 141.9 57.6C141.9 57.6 139.2 57.5 135.2 57.5L133.8 49.4L150.5 49.3L151.6 55.3C151.7 55.9 152.3 56.4 153 56.2C153.6 56.1 154 55.5 153.9 54.8L152.9 49.7C153.8 52.6 154.8 55.4 155.8 58C150.2 62.2 126.9 79.4 114.6 87.6L111.3 76.1L119.8 75.9C120.4 75.9 121 75.3 120.9 74.7C120.9 74.1 120.4 73.5 119.7 73.6L110.6 73.8L107.2 61.9C110.4 60.8 116.5 60.1 125.1 59.9ZM107.7 74.4L101.9 76.5L98.2 70.2L101.2 69C101.7 68.8 102 68.4 101.9 67.9L101.8 64.5L104.4 63.2L107.7 74.4ZM95.4 58.1L102.4 61.5L100.1 62.6C99.7 62.8 99.4 63.2 99.5 63.7L99.6 67.1L97 68.1L95.6 65.8L93.6 60.1L95.4 58.1ZM90.3 55.6L93.3 57.1L91.5 59.2C91.2 59.5 91.1 60 91.3 60.3L93.5 66.7C93.5 66.8 93.6 66.8 93.6 66.9L94.8 69L91.1 70.5C90 65.1 89.1 60.6 88.8 59.3L90.3 55.6ZM59.8 56.9C59.9 55.4 60 53.4 60 51.2C69.9 51.2 79.2 51.3 81.3 51.3L88.1 54.6L86.7 58H59.8C59.8 57.6 59.8 57.3 59.8 56.9ZM42.8 51.1C46.3 51.1 50.5 51.1 54.8 51.1C54.7 53.2 54.7 55.1 54.6 56.5C54.6 57.4 54.6 58.4 54.6 59.4L41.6 58.4L42.8 51.1ZM28.5 67.6C28.6 66.7 28.7 65.8 28.8 65C29.5 59.4 29.9 55.9 29.1 52.4C30.3 51.7 32 51 33.6 51.1C34.4 51.1 36.9 51.1 40.3 51.2L36.9 70.2C36.8 70.8 37.2 71.4 37.8 71.5C38.4 71.6 39 71.2 39.2 70.6L41.4 60.9L54.6 61.9C55.2 68.9 57.5 76.1 59.9 82.3L29.2 86.1C28.3 82.4 27.5 76.1 28.5 67.6ZM30.2 116.9L31.6 116.5C32.4 116.3 32.8 115.4 32.6 114.6L26.6 93.9C29.4 98.7 38.7 114.8 48.7 132.3L41.3 136.3L30.2 116.9ZM42.7 139.1L50.2 135.1C52.1 138.5 54.1 142 56 145.4C53.4 146.7 51 147.9 48.5 149.4L42.7 139.1ZM18.1 139.6C16.8 138.4 15.4 137.1 13.8 135.4L22.1 131.9L24.2 134.9L18.1 139.6ZM34.7 158.2C31.9 155 29.1 152.6 27.5 151.2L27.2 150.9C26.7 150.5 26.2 150.2 25.6 150.1V148.7C25.5 146.2 23.9 144.7 20.8 142C20.7 141.9 20.5 141.7 20.4 141.6L25.9 137.3L38.8 155.4C37.5 156.4 36.1 157.3 34.7 158.2ZM41.9 170.4C41.1 167.6 39.7 164.9 38 162.5C39.3 161.6 40.7 160.7 42.1 159.8C44.1 158.5 45.9 157.3 47.7 156.1C51.4 153.7 54.8 152 58.6 150.1C61.6 155.4 64.5 160.6 67.1 165.3L57.4 171.3L55.6 167.4C55.3 166.6 54.4 166.3 53.6 166.7C52.8 167 52.5 167.9 52.9 168.7L55.4 174.2C55.6 174.6 55.9 174.9 56.3 175C56.5 175.1 56.8 175.1 57 175C57.2 175 57.4 174.9 57.5 174.8L68.5 168C69.8 170.3 71 172.5 72.1 174.5C68.8 176.1 61.6 179.6 56.8 182.5C54.5 183.9 48.7 184.9 44.9 185.4C43.8 178.9 42.7 173.2 41.9 170.4ZM43.8 217.6C43.8 218.7 43.8 219.5 43.7 220C41.9 220.8 37.1 222.8 32.5 223.5C31.8 223.6 31.1 223.7 30.6 223.7C30.1 223.7 29.7 223.7 29.3 223.8C28 223.8 27.3 223.6 27 223.4C25.9 222.9 25 222.2 24.4 221.5L43.8 217.6ZM42.8 252.6C42 253.7 41.2 254.8 40.4 256C40 256.6 39.7 257.1 39.3 257.7C38.7 257 38.1 256.2 37.4 255.5C36.7 254.7 36 254 35.3 253.5C38.4 252.1 41.7 250.8 43.5 250.9C43.6 250.9 43.8 250.9 43.9 250.9C43.6 251.4 43.2 252 42.8 252.6ZM46.9 245.5C45.6 245.6 44.6 245.6 43.9 245.5C39.5 245.3 32.7 248.7 29.8 250.2C28.8 249.6 27.2 248.5 25.3 246.5C23.6 244.7 22.9 236.7 23.3 230.2C24.3 229.7 26.5 229.3 29.4 229.2C29.9 229.2 30.4 229.2 30.9 229.1C33.5 229 36.5 229.1 39.6 229.5C45.1 230.2 47.3 231.4 47.8 231.9C48.2 235.6 48.8 240.2 46.9 245.5ZM48 224.5C47.8 225 47.6 225.4 47.6 225.9C46.9 225.6 46.1 225.4 45.3 225.2C47.7 224.1 48.1 223.6 48.3 223.2C49 222.1 50.4 220 47.1 197.8C46.6 194.7 46.1 191.4 45.5 188.2C49.1 187.7 55.5 186.6 58.4 184.9C59.7 184.1 61.3 183.2 62.8 182.4L64.1 185C62.3 186 60.5 187.2 58.8 188.3C54.5 191.3 50.9 192 50.9 192C50.1 192.2 49.6 192.9 49.7 193.7L53.6 220C50.8 221.2 48.9 222.7 48 224.5ZM73.8 239.1C68.7 242.2 59.7 244 52.6 244.9C53.7 240.7 53.6 237 53.3 234C55.6 234.9 58.3 235.1 61.5 234.5C63.7 234.1 66 233.4 68.6 232.4C80.3 227.7 92.9 224.2 97.9 222.9C97.9 223 98 223.1 98 223.2C98.3 224.4 99.2 227.4 100.5 231.4C88.8 233.3 80.4 235.1 73.8 239.1ZM104.1 269.2L97.9 249.1L102.7 246.3C103.4 245.9 103.7 245 103.2 244.2C102.8 243.5 101.9 243.2 101.1 243.7L96.9 246.2L94.4 238C96.8 237.5 99.4 237.1 102.1 236.7C105 245.9 108.9 257.8 111.5 266C109 267 106.2 268.2 104.1 269.2ZM117.3 263.2C117 263.3 116.7 263.5 116.4 263.6C113.8 255.7 110.3 244.6 107.4 235.8C108 235.7 108.6 235.6 109.1 235.5C110.5 235.3 112 235.1 113.5 234.8L120.2 261.9C119.3 262.3 118.3 262.7 117.3 263.2ZM123.2 260.9L116.6 234.4C120.6 233.8 125.4 233.1 130.4 232.4L132 236.6L126.3 237.4C125.5 237.5 124.9 238.3 125 239.1C125.1 239.9 125.9 240.5 126.7 240.4L134.2 239.3H134.3L138.8 238.7L141 249.9L127.8 252.1C127 252.2 126.4 253 126.6 253.8C126.7 254.6 127.5 255.2 128.3 255L134.7 253.9L135.5 258.6C131.2 258.9 127.1 259.7 123.2 260.9ZM176.8 257.6C176.6 257.6 155.8 259.4 143.9 258.6C142.1 258.5 140.3 258.4 138.5 258.5L137.6 253.4L143 252.5C143.4 252.4 143.8 252.2 144 251.9C144.2 251.6 144.3 251.2 144.2 250.8L141.5 236.6C141.3 235.8 140.6 235.3 139.8 235.4L135 236.1L133.4 231.9C140.6 230.9 148.2 230 154.8 229.2L154.9 231.5L146.4 231.7C146 231.7 145.6 231.9 145.3 232.2C145 232.5 144.9 232.9 144.9 233.3L145.2 236.8C145.3 237.6 146 238.2 146.8 238.1H146.9C147.7 238 148.2 237.3 148.1 236.5L147.9 234.6L156.3 234.4C156.7 234.4 157.1 234.2 157.4 233.9C157.7 233.6 157.8 233.2 157.8 232.8L157.7 228.7C165.3 227.8 171.1 227.1 172.6 227C178.9 228 184.6 228.6 190.9 228.7C191.4 230.9 191.9 233.1 192.4 235.3L179.9 237.1L170.9 237.3C170.1 237.3 169.4 238 169.4 238.8C169.4 239.6 170.1 240.3 170.9 240.3L180 240.1C180.1 240.1 180.1 240.1 180.2 240.1L193 238.3C194.8 245.8 196.4 252.1 197.3 255.6C189.1 256.8 181 257.6 176.8 257.6C177 257.6 176.9 257.6 176.8 257.6Z" fill="#E5EFF9"/>
<defs>
<linearGradient id="paint0_linear" x1="0.0914061" y1="126.085" x2="250.344" y2="126.085" gradientUnits="userSpaceOnUse">
<stop stop-color="#AB71FF"/>
<stop offset="0.4492" stop-color="#8E44FC"/>
<stop offset="1" stop-color="#6807F8"/>
</linearGradient>
</defs>
</svg>
